<svg xmlns="http://www.w3.org/2000/svg" version="1.1" xmlns:xlink="http://www.w3.org/1999/xlink" xmlns:svgjs="http://svgjs.com/svgjs" width="1440" height="560" preserveAspectRatio="none" viewBox="0 0 1440 560"><g mask="url(&quot;#SvgjsMask1020&quot;)" fill="none"><path d="M-84.78 376.53L-84.78 376.53" stroke="rgba(239, 234, 228, 1)" stroke-width="1.5"></path><path d="M-84.78 376.53L54.09 400.73" stroke="rgba(239, 234, 228, 1)" stroke-width="1.5"></path><path d="M-84.78 376.53L-78.23 549.88" stroke="rgba(239, 234, 228, 1)" stroke-width="1.5"></path><path d="M-84.78 376.53L191.97 340.6" stroke="rgba(239, 234, 228, 1)" stroke-width="1.5"></path><path d="M-78.23 549.88L-78.23 549.88" stroke="rgba(239, 234, 228, 1)" stroke-width="1.5"></path><path d="M-78.23 549.88L-84.54 685.13" stroke="rgba(239, 234, 228, 1)" stroke-width="1.5"></path><path d="M-78.23 549.88L54.09 400.73" stroke="rgba(239, 234, 228, 1)" stroke-width="1.5"></path><path d="M-78.23 549.88L59.18 695.16" stroke="rgba(239, 234, 228, 1)" stroke-width="1.5"></path><path d="M-78.23 549.88L209.44 657.38" stroke="rgba(239, 234, 228, 1)" stroke-width="1.5"></path><path d="M-84.54 685.13L-84.54 685.13" stroke="rgba(239, 234, 228, 1)" stroke-width="1.5"></path><path d="M-84.54 685.13L59.18 695.16" stroke="rgba(239, 234, 228, 1)" stroke-width="1.5"></path><path d="M-84.54 685.13L209.44 657.38" stroke="rgba(239, 234, 228, 1)" stroke-width="1.5"></path><path d="M54.09 400.73L54.09 400.73" stroke="rgba(239, 234, 228, 1)" stroke-width="1.5"></path><path d="M54.09 400.73L191.97 340.6" stroke="rgba(239, 234, 228, 1)" stroke-width="1.5"></path><path d="M54.09 400.73L232.62 555.44" stroke="rgba(239, 234, 228, 1)" stroke-width="1.5"></path><path d="M54.09 400.73L59.18 695.16" stroke="rgba(239, 234, 228, 1)" stroke-width="1.5"></path><path d="M59.18 695.16L59.18 695.16" stroke="rgba(239, 234, 228, 1)" stroke-width="1.5"></path><path d="M59.18 695.16L209.44 657.38" stroke="rgba(239, 234, 228, 1)" stroke-width="1.5"></path><path d="M191.97 340.6L191.97 340.6" stroke="rgba(239, 234, 228, 1)" stroke-width="1.5"></path><path d="M191.97 340.6L367.02 382.87" stroke="rgba(239, 234, 228, 1)" stroke-width="1.5"></path><path d="M232.62 555.44L232.62 555.44" stroke="rgba(239, 234, 228, 1)" stroke-width="1.5"></path><path d="M232.62 555.44L209.44 657.38" stroke="rgba(239, 234, 228, 1)" stroke-width="1.5"></path><path d="M232.62 555.44L191.97 340.6" stroke="rgba(239, 234, 228, 1)" stroke-width="1.5"></path><path d="M209.44 657.38L209.44 657.38" stroke="rgba(239, 234, 228, 1)" stroke-width="1.5"></path><path d="M209.44 657.38L503.64 682.34" stroke="rgba(239, 234, 228, 1)" stroke-width="1.5"></path><path d="M209.44 657.38L54.09 400.73" stroke="rgba(239, 234, 228, 1)" stroke-width="1.5"></path><path d="M367.02 382.87L367.02 382.87" stroke="rgba(239, 234, 228, 1)" stroke-width="1.5"></path><path d="M367.02 382.87L544.39 385.8" stroke="rgba(239, 234, 228, 1)" stroke-width="1.5"></path><path d="M367.02 382.87L232.62 555.44" stroke="rgba(239, 234, 228, 1)" stroke-width="1.5"></path><path d="M544.39 385.8L544.39 385.8" stroke="rgba(239, 234, 228, 1)" stroke-width="1.5"></path><path d="M544.39 385.8L659.84 492.06" stroke="rgba(239, 234, 228, 1)" stroke-width="1.5"></path><path d="M558.57 552.3L558.57 552.3" stroke="rgba(239, 234, 228, 1)" stroke-width="1.5"></path><path d="M558.57 552.3L659.84 492.06" stroke="rgba(239, 234, 228, 1)" stroke-width="1.5"></path><path d="M558.57 552.3L503.64 682.34" stroke="rgba(239, 234, 228, 1)" stroke-width="1.5"></path><path d="M558.57 552.3L544.39 385.8" stroke="rgba(239, 234, 228, 1)" stroke-width="1.5"></path><path d="M558.57 552.3L693.05 654.17" stroke="rgba(239, 234, 228, 1)" stroke-width="1.5"></path><path d="M503.64 682.34L503.64 682.34" stroke="rgba(239, 234, 228, 1)" stroke-width="1.5"></path><path d="M659.84 492.06L659.84 492.06" stroke="rgba(239, 234, 228, 1)" stroke-width="1.5"></path><path d="M659.84 492.06L693.05 654.17" stroke="rgba(239, 234, 228, 1)" stroke-width="1.5"></path><path d="M659.84 492.06L857.94 510.56" stroke="rgba(239, 234, 228, 1)" stroke-width="1.5"></path><path d="M659.84 492.06L503.64 682.34" stroke="rgba(239, 234, 228, 1)" stroke-width="1.5"></path><path d="M659.84 492.06L823.05 695.93" stroke="rgba(239, 234, 228, 1)" stroke-width="1.5"></path><path d="M693.05 654.17L693.05 654.17" stroke="rgba(239, 234, 228, 1)" stroke-width="1.5"></path><path d="M693.05 654.17L823.05 695.93" stroke="rgba(239, 234, 228, 1)" stroke-width="1.5"></path><path d="M835.96 216.18L835.96 216.18" stroke="rgba(239, 234, 228, 1)" stroke-width="1.5"></path><path d="M835.96 216.18L992.6 246.95" stroke="rgba(239, 234, 228, 1)" stroke-width="1.5"></path><path d="M835.96 216.18L975.74 87.35" stroke="rgba(239, 234, 228, 1)" stroke-width="1.5"></path><path d="M835.96 216.18L992.15 407.16" stroke="rgba(239, 234, 228, 1)" stroke-width="1.5"></path><path d="M835.96 216.18L1089.28 221.46" stroke="rgba(239, 234, 228, 1)" stroke-width="1.5"></path><path d="M835.96 216.18L1093.55 94.34" stroke="rgba(239, 234, 228, 1)" stroke-width="1.5"></path><path d="M857.94 510.56L857.94 510.56" stroke="rgba(239, 234, 228, 1)" stroke-width="1.5"></path><path d="M857.94 510.56L1007.33 545.58" stroke="rgba(239, 234, 228, 1)" stroke-width="1.5"></path><path d="M857.94 510.56L942.13 645.15" stroke="rgba(239, 234, 228, 1)" stroke-width="1.5"></path><path d="M857.94 510.56L992.15 407.16" stroke="rgba(239, 234, 228, 1)" stroke-width="1.5"></path><path d="M823.05 695.93L823.05 695.93" stroke="rgba(239, 234, 228, 1)" stroke-width="1.5"></path><path d="M823.05 695.93L942.13 645.15" stroke="rgba(239, 234, 228, 1)" stroke-width="1.5"></path><path d="M823.05 695.93L857.94 510.56" stroke="rgba(239, 234, 228, 1)" stroke-width="1.5"></path><path d="M823.05 695.93L1007.33 545.58" stroke="rgba(239, 234, 228, 1)" stroke-width="1.5"></path><path d="M989.88 -54.19L989.88 -54.19" stroke="rgba(239, 234, 228, 1)" stroke-width="1.5"></path><path d="M989.88 -54.19L1100.28 -57.24" stroke="rgba(239, 234, 228, 1)" stroke-width="1.5"></path><path d="M989.88 -54.19L975.74 87.35" stroke="rgba(239, 234, 228, 1)" stroke-width="1.5"></path><path d="M975.74 87.35L975.74 87.35" stroke="rgba(239, 234, 228, 1)" stroke-width="1.5"></path><path d="M975.74 87.35L1093.55 94.34" stroke="rgba(239, 234, 228, 1)" stroke-width="1.5"></path><path d="M975.74 87.35L992.6 246.95" stroke="rgba(239, 234, 228, 1)" stroke-width="1.5"></path><path d="M975.74 87.35L1089.28 221.46" stroke="rgba(239, 234, 228, 1)" stroke-width="1.5"></path><path d="M975.74 87.35L1100.28 -57.24" stroke="rgba(239, 234, 228, 1)" stroke-width="1.5"></path><path d="M992.6 246.95L992.6 246.95" stroke="rgba(239, 234, 228, 1)" stroke-width="1.5"></path><path d="M992.6 246.95L1089.28 221.46" stroke="rgba(239, 234, 228, 1)" stroke-width="1.5"></path><path d="M992.6 246.95L992.15 407.16" stroke="rgba(239, 234, 228, 1)" stroke-width="1.5"></path><path d="M992.6 246.95L1093.55 94.34" stroke="rgba(239, 234, 228, 1)" stroke-width="1.5"></path><path d="M992.6 246.95L1150.3 357.55" stroke="rgba(239, 234, 228, 1)" stroke-width="1.5"></path><path d="M992.15 407.16L992.15 407.16" stroke="rgba(239, 234, 228, 1)" stroke-width="1.5"></path><path d="M992.15 407.16L1007.33 545.58" stroke="rgba(239, 234, 228, 1)" stroke-width="1.5"></path><path d="M992.15 407.16L1150.3 357.55" stroke="rgba(239, 234, 228, 1)" stroke-width="1.5"></path><path d="M992.15 407.16L1089.28 221.46" stroke="rgba(239, 234, 228, 1)" stroke-width="1.5"></path><path d="M1007.33 545.58L1007.33 545.58" stroke="rgba(239, 234, 228, 1)" stroke-width="1.5"></path><path d="M1007.33 545.58L942.13 645.15" stroke="rgba(239, 234, 228, 1)" stroke-width="1.5"></path><path d="M1007.33 545.58L1152.44 542.93" stroke="rgba(239, 234, 228, 1)" stroke-width="1.5"></path><path d="M1007.33 545.58L1143.59 693.57" stroke="rgba(239, 234, 228, 1)" stroke-width="1.5"></path><path d="M1007.33 545.58L1150.3 357.55" stroke="rgba(239, 234, 228, 1)" stroke-width="1.5"></path><path d="M942.13 645.15L942.13 645.15" stroke="rgba(239, 234, 228, 1)" stroke-width="1.5"></path><path d="M1100.28 -57.24L1100.28 -57.24" stroke="rgba(239, 234, 228, 1)" stroke-width="1.5"></path><path d="M1100.28 -57.24L1093.55 94.34" stroke="rgba(239, 234, 228, 1)" stroke-width="1.5"></path><path d="M1100.28 -57.24L1263.04 -74.34" stroke="rgba(239, 234, 228, 1)" stroke-width="1.5"></path><path d="M1100.28 -57.24L1265.19 65.22" stroke="rgba(239, 234, 228, 1)" stroke-width="1.5"></path><path d="M1093.55 94.34L1093.55 94.34" stroke="rgba(239, 234, 228, 1)" stroke-width="1.5"></path><path d="M1093.55 94.34L1089.28 221.46" stroke="rgba(239, 234, 228, 1)" stroke-width="1.5"></path><path d="M1093.55 94.34L1265.19 65.22" stroke="rgba(239, 234, 228, 1)" stroke-width="1.5"></path><path d="M1089.28 221.46L1089.28 221.46" stroke="rgba(239, 234, 228, 1)" stroke-width="1.5"></path><path d="M1089.28 221.46L1150.3 357.55" stroke="rgba(239, 234, 228, 1)" stroke-width="1.5"></path><path d="M1150.3 357.55L1150.3 357.55" stroke="rgba(239, 234, 228, 1)" stroke-width="1.5"></path><path d="M1150.3 357.55L1274.76 357.72" stroke="rgba(239, 234, 228, 1)" stroke-width="1.5"></path><path d="M1150.3 357.55L1152.44 542.93" stroke="rgba(239, 234, 228, 1)" stroke-width="1.5"></path><path d="M1150.3 357.55L1286.48 500.51" stroke="rgba(239, 234, 228, 1)" stroke-width="1.5"></path><path d="M1152.44 542.93L1152.44 542.93" stroke="rgba(239, 234, 228, 1)" stroke-width="1.5"></path><path d="M1152.44 542.93L1286.48 500.51" stroke="rgba(239, 234, 228, 1)" stroke-width="1.5"></path><path d="M1152.44 542.93L1143.59 693.57" stroke="rgba(239, 234, 228, 1)" stroke-width="1.5"></path><path d="M1152.44 542.93L1305.84 685" stroke="rgba(239, 234, 228, 1)" stroke-width="1.5"></path><path d="M1152.44 542.93L992.15 407.16" stroke="rgba(239, 234, 228, 1)" stroke-width="1.5"></path><path d="M1143.59 693.57L1143.59 693.57" stroke="rgba(239, 234, 228, 1)" stroke-width="1.5"></path><path d="M1143.59 693.57L1305.84 685" stroke="rgba(239, 234, 228, 1)" stroke-width="1.5"></path><path d="M1263.04 -74.34L1263.04 -74.34" stroke="rgba(239, 234, 228, 1)" stroke-width="1.5"></path><path d="M1263.04 -74.34L1265.19 65.22" stroke="rgba(239, 234, 228, 1)" stroke-width="1.5"></path><path d="M1263.04 -74.34L1405.53 -41.23" stroke="rgba(239, 234, 228, 1)" stroke-width="1.5"></path><path d="M1263.04 -74.34L1093.55 94.34" stroke="rgba(239, 234, 228, 1)" stroke-width="1.5"></path><path d="M1265.19 65.22L1265.19 65.22" stroke="rgba(239, 234, 228, 1)" stroke-width="1.5"></path><path d="M1265.19 65.22L1307.86 231.8" stroke="rgba(239, 234, 228, 1)" stroke-width="1.5"></path><path d="M1265.19 65.22L1405.53 -41.23" stroke="rgba(239, 234, 228, 1)" stroke-width="1.5"></path><path d="M1265.19 65.22L1445.63 91.22" stroke="rgba(239, 234, 228, 1)" stroke-width="1.5"></path><path d="M1265.19 65.22L1393.26 204.67" stroke="rgba(239, 234, 228, 1)" stroke-width="1.5"></path><path d="M1307.86 231.8L1307.86 231.8" stroke="rgba(239, 234, 228, 1)" stroke-width="1.5"></path><path d="M1307.86 231.8L1393.26 204.67" stroke="rgba(239, 234, 228, 1)" stroke-width="1.5"></path><path d="M1307.86 231.8L1274.76 357.72" stroke="rgba(239, 234, 228, 1)" stroke-width="1.5"></path><path d="M1307.86 231.8L1445.63 91.22" stroke="rgba(239, 234, 228, 1)" stroke-width="1.5"></path><path d="M1274.76 357.72L1274.76 357.72" stroke="rgba(239, 234, 228, 1)" stroke-width="1.5"></path><path d="M1274.76 357.72L1286.48 500.51" stroke="rgba(239, 234, 228, 1)" stroke-width="1.5"></path><path d="M1286.48 500.51L1286.48 500.51" stroke="rgba(239, 234, 228, 1)" stroke-width="1.5"></path><path d="M1286.48 500.51L1409.99 512.59" stroke="rgba(239, 234, 228, 1)" stroke-width="1.5"></path><path d="M1286.48 500.51L1415.09 405.1" stroke="rgba(239, 234, 228, 1)" stroke-width="1.5"></path><path d="M1305.84 685L1305.84 685" stroke="rgba(239, 234, 228, 1)" stroke-width="1.5"></path><path d="M1305.84 685L1452.75 683.48" stroke="rgba(239, 234, 228, 1)" stroke-width="1.5"></path><path d="M1405.53 -41.23L1405.53 -41.23" stroke="rgba(239, 234, 228, 1)" stroke-width="1.5"></path><path d="M1405.53 -41.23L1445.63 91.22" stroke="rgba(239, 234, 228, 1)" stroke-width="1.5"></path><path d="M1445.63 91.22L1445.63 91.22" stroke="rgba(239, 234, 228, 1)" stroke-width="1.5"></path><path d="M1445.63 91.22L1539.48 56.65" stroke="rgba(239, 234, 228, 1)" stroke-width="1.5"></path><path d="M1445.63 91.22L1393.26 204.67" stroke="rgba(239, 234, 228, 1)" stroke-width="1.5"></path><path d="M1445.63 91.22L1581.68 -81.19" stroke="rgba(239, 234, 228, 1)" stroke-width="1.5"></path><path d="M1393.26 204.67L1393.26 204.67" stroke="rgba(239, 234, 228, 1)" stroke-width="1.5"></path><path d="M1415.09 405.1L1415.09 405.1" stroke="rgba(239, 234, 228, 1)" stroke-width="1.5"></path><path d="M1415.09 405.1L1409.99 512.59" stroke="rgba(239, 234, 228, 1)" stroke-width="1.5"></path><path d="M1415.09 405.1L1274.76 357.72" stroke="rgba(239, 234, 228, 1)" stroke-width="1.5"></path><path d="M1415.09 405.1L1539.13 491.78" stroke="rgba(239, 234, 228, 1)" stroke-width="1.5"></path><path d="M1415.09 405.1L1598.98 378.45" stroke="rgba(239, 234, 228, 1)" stroke-width="1.5"></path><path d="M1415.09 405.1L1393.26 204.67" stroke="rgba(239, 234, 228, 1)" stroke-width="1.5"></path><path d="M1409.99 512.59L1409.99 512.59" stroke="rgba(239, 234, 228, 1)" stroke-width="1.5"></path><path d="M1409.99 512.59L1539.13 491.78" stroke="rgba(239, 234, 228, 1)" stroke-width="1.5"></path><path d="M1409.99 512.59L1452.75 683.48" stroke="rgba(239, 234, 228, 1)" stroke-width="1.5"></path><path d="M1409.99 512.59L1305.84 685" stroke="rgba(239, 234, 228, 1)" stroke-width="1.5"></path><path d="M1452.75 683.48L1452.75 683.48" stroke="rgba(239, 234, 228, 1)" stroke-width="1.5"></path><path d="M1452.75 683.48L1564.33 643.12" stroke="rgba(239, 234, 228, 1)" stroke-width="1.5"></path><path d="M1452.75 683.48L1539.13 491.78" stroke="rgba(239, 234, 228, 1)" stroke-width="1.5"></path><path d="M1452.75 683.48L1286.48 500.51" stroke="rgba(239, 234, 228, 1)" stroke-width="1.5"></path><path d="M1581.68 -81.19L1581.68 -81.19" stroke="rgba(239, 234, 228, 1)" stroke-width="1.5"></path><path d="M1581.68 -81.19L1539.48 56.65" stroke="rgba(239, 234, 228, 1)" stroke-width="1.5"></path><path d="M1581.68 -81.19L1405.53 -41.23" stroke="rgba(239, 234, 228, 1)" stroke-width="1.5"></path><path d="M1581.68 -81.19L1263.04 -74.34" stroke="rgba(239, 234, 228, 1)" stroke-width="1.5"></path><path d="M1581.68 -81.19L1587.26 260.08" stroke="rgba(239, 234, 228, 1)" stroke-width="1.5"></path><path d="M1581.68 -81.19L1393.26 204.67" stroke="rgba(239, 234, 228, 1)" stroke-width="1.5"></path><path d="M1539.48 56.65L1539.48 56.65" stroke="rgba(239, 234, 228, 1)" stroke-width="1.5"></path><path d="M1539.48 56.65L1405.53 -41.23" stroke="rgba(239, 234, 228, 1)" stroke-width="1.5"></path><path d="M1587.26 260.08L1587.26 260.08" stroke="rgba(239, 234, 228, 1)" stroke-width="1.5"></path><path d="M1587.26 260.08L1598.98 378.45" stroke="rgba(239, 234, 228, 1)" stroke-width="1.5"></path><path d="M1587.26 260.08L1393.26 204.67" stroke="rgba(239, 234, 228, 1)" stroke-width="1.5"></path><path d="M1587.26 260.08L1539.48 56.65" stroke="rgba(239, 234, 228, 1)" stroke-width="1.5"></path><path d="M1598.98 378.45L1598.98 378.45" stroke="rgba(239, 234, 228, 1)" stroke-width="1.5"></path><path d="M1598.98 378.45L1539.13 491.78" stroke="rgba(239, 234, 228, 1)" stroke-width="1.5"></path><path d="M1598.98 378.45L1409.99 512.59" stroke="rgba(239, 234, 228, 1)" stroke-width="1.5"></path><path d="M1598.98 378.45L1564.33 643.12" stroke="rgba(239, 234, 228, 1)" stroke-width="1.5"></path><path d="M1598.98 378.45L1393.26 204.67" stroke="rgba(239, 234, 228, 1)" stroke-width="1.5"></path><path d="M1539.13 491.78L1539.13 491.78" stroke="rgba(239, 234, 228, 1)" stroke-width="1.5"></path><path d="M1539.13 491.78L1564.33 643.12" stroke="rgba(239, 234, 228, 1)" stroke-width="1.5"></path><path d="M1564.33 643.12L1564.33 643.12" stroke="rgba(239, 234, 228, 1)" stroke-width="1.5"></path><path d="M1564.33 643.12L1409.99 512.59" stroke="rgba(239, 234, 228, 1)" stroke-width="1.5"></path><path d="M1564.33 643.12L1305.84 685" stroke="rgba(239, 234, 228, 1)" stroke-width="1.5"></path><circle r="5" cx="-84.78" cy="376.53" fill="rgba(239, 234, 228, 1)"></circle><circle r="5" cx="-78.23" cy="549.88" fill="rgba(239, 234, 228, 1)"></circle><circle r="5" cx="-84.54" cy="685.13" fill="rgba(239, 234, 228, 1)"></circle><circle r="5" cx="54.09" cy="400.73" fill="rgba(239, 234, 228, 1)"></circle><circle r="5" cx="59.18" cy="695.16" fill="rgba(239, 234, 228, 1)"></circle><circle r="5" cx="191.97" cy="340.6" fill="rgba(239, 234, 228, 1)"></circle><circle r="5" cx="232.62" cy="555.44" fill="rgba(239, 234, 228, 1)"></circle><circle r="5" cx="209.44" cy="657.38" fill="rgba(239, 234, 228, 1)"></circle><circle r="5" cx="367.02" cy="382.87" fill="rgba(239, 234, 228, 1)"></circle><circle r="5" cx="544.39" cy="385.8" fill="rgba(239, 234, 228, 1)"></circle><circle r="5" cx="558.57" cy="552.3" fill="rgba(239, 234, 228, 1)"></circle><circle r="5" cx="503.64" cy="682.34" fill="rgba(239, 234, 228, 1)"></circle><circle r="5" cx="659.84" cy="492.06" fill="rgba(239, 234, 228, 1)"></circle><circle r="5" cx="693.05" cy="654.17" fill="rgba(239, 234, 228, 1)"></circle><circle r="5" cx="835.96" cy="216.18" fill="rgba(239, 234, 228, 1)"></circle><circle r="5" cx="857.94" cy="510.56" fill="rgba(239, 234, 228, 1)"></circle><circle r="5" cx="823.05" cy="695.93" fill="rgba(239, 234, 228, 1)"></circle><circle r="5" cx="989.88" cy="-54.19" fill="rgba(239, 234, 228, 1)"></circle><circle r="5" cx="975.74" cy="87.35" fill="rgba(239, 234, 228, 1)"></circle><circle r="5" cx="992.6" cy="246.95" fill="rgba(239, 234, 228, 1)"></circle><circle r="5" cx="992.15" cy="407.16" fill="rgba(239, 234, 228, 1)"></circle><circle r="5" cx="1007.33" cy="545.58" fill="rgba(239, 234, 228, 1)"></circle><circle r="5" cx="942.13" cy="645.15" fill="rgba(239, 234, 228, 1)"></circle><circle r="5" cx="1100.28" cy="-57.24" fill="rgba(239, 234, 228, 1)"></circle><circle r="5" cx="1093.55" cy="94.34" fill="rgba(239, 234, 228, 1)"></circle><circle r="5" cx="1089.28" cy="221.46" fill="rgba(239, 234, 228, 1)"></circle><circle r="5" cx="1150.3" cy="357.55" fill="rgba(239, 234, 228, 1)"></circle><circle r="5" cx="1152.44" cy="542.93" fill="rgba(239, 234, 228, 1)"></circle><circle r="5" cx="1143.59" cy="693.57" fill="rgba(239, 234, 228, 1)"></circle><circle r="5" cx="1263.04" cy="-74.34" fill="rgba(239, 234, 228, 1)"></circle><circle r="5" cx="1265.19" cy="65.22" fill="rgba(239, 234, 228, 1)"></circle><circle r="5" cx="1307.86" cy="231.8" fill="rgba(239, 234, 228, 1)"></circle><circle r="5" cx="1274.76" cy="357.72" fill="rgba(239, 234, 228, 1)"></circle><circle r="5" cx="1286.48" cy="500.51" fill="rgba(239, 234, 228, 1)"></circle><circle r="5" cx="1305.84" cy="685" fill="rgba(239, 234, 228, 1)"></circle><circle r="5" cx="1405.53" cy="-41.23" fill="rgba(239, 234, 228, 1)"></circle><circle r="5" cx="1445.63" cy="91.22" fill="rgba(239, 234, 228, 1)"></circle><circle r="5" cx="1393.26" cy="204.67" fill="rgba(239, 234, 228, 1)"></circle><circle r="5" cx="1415.09" cy="405.1" fill="rgba(239, 234, 228, 1)"></circle><circle r="5" cx="1409.99" cy="512.59" fill="rgba(239, 234, 228, 1)"></circle><circle r="5" cx="1452.75" cy="683.48" fill="rgba(239, 234, 228, 1)"></circle><circle r="5" cx="1581.68" cy="-81.19" fill="rgba(239, 234, 228, 1)"></circle><circle r="5" cx="1539.48" cy="56.65" fill="rgba(239, 234, 228, 1)"></circle><circle r="5" cx="1587.26" cy="260.08" fill="rgba(239, 234, 228, 1)"></circle><circle r="5" cx="1598.98" cy="378.45" fill="rgba(239, 234, 228, 1)"></circle><circle r="5" cx="1539.13" cy="491.78" fill="rgba(239, 234, 228, 1)"></circle><circle r="5" cx="1564.33" cy="643.12" fill="rgba(239, 234, 228, 1)"></circle><path d="M208.26 687.67L208.26 687.67" stroke="hsl(44.10000000000002, 24.4%, 51.2%)" stroke-width="1.5"></path><path d="M208.26 687.67L41.91 649.31" stroke="hsl(44.10000000000002, 24.4%, 51.2%)" stroke-width="1.5"></path><path d="M208.26 687.67L235.81 496.92" stroke="hsl(44.10000000000002, 24.4%, 51.2%)" stroke-width="1.5"></path><path d="M208.26 687.67L405.83 555.36" stroke="hsl(44.10000000000002, 24.4%, 51.2%)" stroke-width="1.5"></path><path d="M982.3 346.26L982.3 346.26" stroke="hsl(44.10000000000002, 24.4%, 51.2%)" stroke-width="1.5"></path><path d="M982.3 346.26L837.41 350.17" stroke="hsl(44.10000000000002, 24.4%, 51.2%)" stroke-width="1.5"></path><path d="M982.3 346.26L943.67 539.59" stroke="hsl(44.10000000000002, 24.4%, 51.2%)" stroke-width="1.5"></path><path d="M982.3 346.26L1160.7 226.6" stroke="hsl(44.10000000000002, 24.4%, 51.2%)" stroke-width="1.5"></path><path d="M1311.47 199.59L1311.47 199.59" stroke="hsl(44.10000000000002, 24.4%, 51.2%)" stroke-width="1.5"></path><path d="M1311.47 199.59L1403.73 193.43" stroke="hsl(44.10000000000002, 24.4%, 51.2%)" stroke-width="1.5"></path><path d="M1311.47 199.59L1270.72 100" stroke="hsl(44.10000000000002, 24.4%, 51.2%)" stroke-width="1.5"></path><path d="M1311.47 199.59L1160.7 226.6" stroke="hsl(44.10000000000002, 24.4%, 51.2%)" stroke-width="1.5"></path><path d="M1311.47 199.59L1240.87 392.17" stroke="hsl(44.10000000000002, 24.4%, 51.2%)" stroke-width="1.5"></path><path d="M1311.47 199.59L1441.12 361.56" stroke="hsl(44.10000000000002, 24.4%, 51.2%)" stroke-width="1.5"></path><path d="M1538.63 41.31L1538.63 41.31" stroke="hsl(44.10000000000002, 24.4%, 51.2%)" stroke-width="1.5"></path><path d="M1538.63 41.31L1574.88 -67.54" stroke="hsl(44.10000000000002, 24.4%, 51.2%)" stroke-width="1.5"></path><path d="M1538.63 41.31L1595.51 192.39" stroke="hsl(44.10000000000002, 24.4%, 51.2%)" stroke-width="1.5"></path><path d="M1538.63 41.31L1403.73 193.43" stroke="hsl(44.10000000000002, 24.4%, 51.2%)" stroke-width="1.5"></path><path d="M-69.02 526.84L-69.02 526.84" stroke="hsl(44.10000000000002, 24.4%, 51.2%)" stroke-width="1.5"></path><path d="M-69.02 526.84L55.74 491.98" stroke="hsl(44.10000000000002, 24.4%, 51.2%)" stroke-width="1.5"></path><path d="M-69.02 526.84L-90.34 660.1" stroke="hsl(44.10000000000002, 24.4%, 51.2%)" stroke-width="1.5"></path><path d="M-69.02 526.84L41.91 649.31" stroke="hsl(44.10000000000002, 24.4%, 51.2%)" stroke-width="1.5"></path><path d="M-69.02 526.84L235.81 496.92" stroke="hsl(44.10000000000002, 24.4%, 51.2%)" stroke-width="1.5"></path><path d="M-69.02 526.84L208.26 687.67" stroke="hsl(44.10000000000002, 24.4%, 51.2%)" stroke-width="1.5"></path><path d="M-69.02 526.84L405.83 555.36" stroke="hsl(44.10000000000002, 24.4%, 51.2%)" stroke-width="1.5"></path><path d="M-90.34 660.1L-90.34 660.1" stroke="hsl(44.10000000000002, 24.4%, 51.2%)" stroke-width="1.5"></path><path d="M-90.34 660.1L41.91 649.31" stroke="hsl(44.10000000000002, 24.4%, 51.2%)" stroke-width="1.5"></path><path d="M55.74 491.98L55.74 491.98" stroke="hsl(44.10000000000002, 24.4%, 51.2%)" stroke-width="1.5"></path><path d="M55.74 491.98L41.91 649.31" stroke="hsl(44.10000000000002, 24.4%, 51.2%)" stroke-width="1.5"></path><path d="M55.74 491.98L235.81 496.92" stroke="hsl(44.10000000000002, 24.4%, 51.2%)" stroke-width="1.5"></path><path d="M41.91 649.31L41.91 649.31" stroke="hsl(44.10000000000002, 24.4%, 51.2%)" stroke-width="1.5"></path><path d="M235.81 496.92L235.81 496.92" stroke="hsl(44.10000000000002, 24.4%, 51.2%)" stroke-width="1.5"></path><path d="M235.81 496.92L405.83 555.36" stroke="hsl(44.10000000000002, 24.4%, 51.2%)" stroke-width="1.5"></path><path d="M235.81 496.92L41.91 649.31" stroke="hsl(44.10000000000002, 24.4%, 51.2%)" stroke-width="1.5"></path><path d="M405.83 555.36L405.83 555.36" stroke="hsl(44.10000000000002, 24.4%, 51.2%)" stroke-width="1.5"></path><path d="M405.83 555.36L490.29 528.09" stroke="hsl(44.10000000000002, 24.4%, 51.2%)" stroke-width="1.5"></path><path d="M405.83 555.36L540.44 664" stroke="hsl(44.10000000000002, 24.4%, 51.2%)" stroke-width="1.5"></path><path d="M490.29 528.09L490.29 528.09" stroke="hsl(44.10000000000002, 24.4%, 51.2%)" stroke-width="1.5"></path><path d="M490.29 528.09L540.44 664" stroke="hsl(44.10000000000002, 24.4%, 51.2%)" stroke-width="1.5"></path><path d="M490.29 528.09L692.02 527.39" stroke="hsl(44.10000000000002, 24.4%, 51.2%)" stroke-width="1.5"></path><path d="M490.29 528.09L685.69 672.33" stroke="hsl(44.10000000000002, 24.4%, 51.2%)" stroke-width="1.5"></path><path d="M540.44 664L540.44 664" stroke="hsl(44.10000000000002, 24.4%, 51.2%)" stroke-width="1.5"></path><path d="M540.44 664L685.69 672.33" stroke="hsl(44.10000000000002, 24.4%, 51.2%)" stroke-width="1.5"></path><path d="M692.02 527.39L692.02 527.39" stroke="hsl(44.10000000000002, 24.4%, 51.2%)" stroke-width="1.5"></path><path d="M692.02 527.39L685.69 672.33" stroke="hsl(44.10000000000002, 24.4%, 51.2%)" stroke-width="1.5"></path><path d="M692.02 527.39L540.44 664" stroke="hsl(44.10000000000002, 24.4%, 51.2%)" stroke-width="1.5"></path><path d="M692.02 527.39L819.07 711.51" stroke="hsl(44.10000000000002, 24.4%, 51.2%)" stroke-width="1.5"></path><path d="M685.69 672.33L685.69 672.33" stroke="hsl(44.10000000000002, 24.4%, 51.2%)" stroke-width="1.5"></path><path d="M685.69 672.33L819.07 711.51" stroke="hsl(44.10000000000002, 24.4%, 51.2%)" stroke-width="1.5"></path><path d="M837.41 350.17L837.41 350.17" stroke="hsl(44.10000000000002, 24.4%, 51.2%)" stroke-width="1.5"></path><path d="M837.41 350.17L943.67 539.59" stroke="hsl(44.10000000000002, 24.4%, 51.2%)" stroke-width="1.5"></path><path d="M837.41 350.17L692.02 527.39" stroke="hsl(44.10000000000002, 24.4%, 51.2%)" stroke-width="1.5"></path><path d="M819.07 711.51L819.07 711.51" stroke="hsl(44.10000000000002, 24.4%, 51.2%)" stroke-width="1.5"></path><path d="M819.07 711.51L1002 702.33" stroke="hsl(44.10000000000002, 24.4%, 51.2%)" stroke-width="1.5"></path><path d="M819.07 711.51L943.67 539.59" stroke="hsl(44.10000000000002, 24.4%, 51.2%)" stroke-width="1.5"></path><path d="M819.07 711.51L1093.87 656.69" stroke="hsl(44.10000000000002, 24.4%, 51.2%)" stroke-width="1.5"></path><path d="M943.67 539.59L943.67 539.59" stroke="hsl(44.10000000000002, 24.4%, 51.2%)" stroke-width="1.5"></path><path d="M943.67 539.59L1002 702.33" stroke="hsl(44.10000000000002, 24.4%, 51.2%)" stroke-width="1.5"></path><path d="M943.67 539.59L1123.47 527.33" stroke="hsl(44.10000000000002, 24.4%, 51.2%)" stroke-width="1.5"></path><path d="M943.67 539.59L1093.87 656.69" stroke="hsl(44.10000000000002, 24.4%, 51.2%)" stroke-width="1.5"></path><path d="M1002 702.33L1002 702.33" stroke="hsl(44.10000000000002, 24.4%, 51.2%)" stroke-width="1.5"></path><path d="M1002 702.33L1093.87 656.69" stroke="hsl(44.10000000000002, 24.4%, 51.2%)" stroke-width="1.5"></path><path d="M1002 702.33L1123.47 527.33" stroke="hsl(44.10000000000002, 24.4%, 51.2%)" stroke-width="1.5"></path><path d="M1002 702.33L1247.85 657.48" stroke="hsl(44.10000000000002, 24.4%, 51.2%)" stroke-width="1.5"></path><path d="M1139.36 78.04L1139.36 78.04" stroke="hsl(44.10000000000002, 24.4%, 51.2%)" stroke-width="1.5"></path><path d="M1139.36 78.04L1270.72 100" stroke="hsl(44.10000000000002, 24.4%, 51.2%)" stroke-width="1.5"></path><path d="M1139.36 78.04L1160.7 226.6" stroke="hsl(44.10000000000002, 24.4%, 51.2%)" stroke-width="1.5"></path><path d="M1139.36 78.04L1311.47 199.59" stroke="hsl(44.10000000000002, 24.4%, 51.2%)" stroke-width="1.5"></path><path d="M1160.7 226.6L1160.7 226.6" stroke="hsl(44.10000000000002, 24.4%, 51.2%)" stroke-width="1.5"></path><path d="M1160.7 226.6L1270.72 100" stroke="hsl(44.10000000000002, 24.4%, 51.2%)" stroke-width="1.5"></path><path d="M1160.7 226.6L1240.87 392.17" stroke="hsl(44.10000000000002, 24.4%, 51.2%)" stroke-width="1.5"></path><path d="M1123.47 527.33L1123.47 527.33" stroke="hsl(44.10000000000002, 24.4%, 51.2%)" stroke-width="1.5"></path><path d="M1123.47 527.33L1093.87 656.69" stroke="hsl(44.10000000000002, 24.4%, 51.2%)" stroke-width="1.5"></path><path d="M1123.47 527.33L1264.26 496.32" stroke="hsl(44.10000000000002, 24.4%, 51.2%)" stroke-width="1.5"></path><path d="M1123.47 527.33L1240.87 392.17" stroke="hsl(44.10000000000002, 24.4%, 51.2%)" stroke-width="1.5"></path><path d="M1093.87 656.69L1093.87 656.69" stroke="hsl(44.10000000000002, 24.4%, 51.2%)" stroke-width="1.5"></path><path d="M1093.87 656.69L1247.85 657.48" stroke="hsl(44.10000000000002, 24.4%, 51.2%)" stroke-width="1.5"></path><path d="M1287.77 -78.81L1287.77 -78.81" stroke="hsl(44.10000000000002, 24.4%, 51.2%)" stroke-width="1.5"></path><path d="M1287.77 -78.81L1395.67 -111.37" stroke="hsl(44.10000000000002, 24.4%, 51.2%)" stroke-width="1.5"></path><path d="M1287.77 -78.81L1270.72 100" stroke="hsl(44.10000000000002, 24.4%, 51.2%)" stroke-width="1.5"></path><path d="M1287.77 -78.81L1139.36 78.04" stroke="hsl(44.10000000000002, 24.4%, 51.2%)" stroke-width="1.5"></path><path d="M1287.77 -78.81L1538.63 41.31" stroke="hsl(44.10000000000002, 24.4%, 51.2%)" stroke-width="1.5"></path><path d="M1287.77 -78.81L1311.47 199.59" stroke="hsl(44.10000000000002, 24.4%, 51.2%)" stroke-width="1.5"></path><path d="M1270.72 100L1270.72 100" stroke="hsl(44.10000000000002, 24.4%, 51.2%)" stroke-width="1.5"></path><path d="M1270.72 100L1403.73 193.43" stroke="hsl(44.10000000000002, 24.4%, 51.2%)" stroke-width="1.5"></path><path d="M1240.87 392.17L1240.87 392.17" stroke="hsl(44.10000000000002, 24.4%, 51.2%)" stroke-width="1.5"></path><path d="M1240.87 392.17L1264.26 496.32" stroke="hsl(44.10000000000002, 24.4%, 51.2%)" stroke-width="1.5"></path><path d="M1264.26 496.32L1264.26 496.32" stroke="hsl(44.10000000000002, 24.4%, 51.2%)" stroke-width="1.5"></path><path d="M1264.26 496.32L1395.63 511.64" stroke="hsl(44.10000000000002, 24.4%, 51.2%)" stroke-width="1.5"></path><path d="M1264.26 496.32L1247.85 657.48" stroke="hsl(44.10000000000002, 24.4%, 51.2%)" stroke-width="1.5"></path><path d="M1247.85 657.48L1247.85 657.48" stroke="hsl(44.10000000000002, 24.4%, 51.2%)" stroke-width="1.5"></path><path d="M1247.85 657.48L1416.62 675.57" stroke="hsl(44.10000000000002, 24.4%, 51.2%)" stroke-width="1.5"></path><path d="M1247.85 657.48L1123.47 527.33" stroke="hsl(44.10000000000002, 24.4%, 51.2%)" stroke-width="1.5"></path><path d="M1395.67 -111.37L1395.67 -111.37" stroke="hsl(44.10000000000002, 24.4%, 51.2%)" stroke-width="1.5"></path><path d="M1395.67 -111.37L1574.88 -67.54" stroke="hsl(44.10000000000002, 24.4%, 51.2%)" stroke-width="1.5"></path><path d="M1395.67 -111.37L1538.63 41.31" stroke="hsl(44.10000000000002, 24.4%, 51.2%)" stroke-width="1.5"></path><path d="M1403.73 193.43L1403.73 193.43" stroke="hsl(44.10000000000002, 24.4%, 51.2%)" stroke-width="1.5"></path><path d="M1403.73 193.43L1441.12 361.56" stroke="hsl(44.10000000000002, 24.4%, 51.2%)" stroke-width="1.5"></path><path d="M1403.73 193.43L1595.51 192.39" stroke="hsl(44.10000000000002, 24.4%, 51.2%)" stroke-width="1.5"></path><path d="M1441.12 361.56L1441.12 361.56" stroke="hsl(44.10000000000002, 24.4%, 51.2%)" stroke-width="1.5"></path><path d="M1441.12 361.56L1586.82 354.92" stroke="hsl(44.10000000000002, 24.4%, 51.2%)" stroke-width="1.5"></path><path d="M1395.63 511.64L1395.63 511.64" stroke="hsl(44.10000000000002, 24.4%, 51.2%)" stroke-width="1.5"></path><path d="M1395.63 511.64L1538.36 504.12" stroke="hsl(44.10000000000002, 24.4%, 51.2%)" stroke-width="1.5"></path><path d="M1395.63 511.64L1441.12 361.56" stroke="hsl(44.10000000000002, 24.4%, 51.2%)" stroke-width="1.5"></path><path d="M1416.62 675.57L1416.62 675.57" stroke="hsl(44.10000000000002, 24.4%, 51.2%)" stroke-width="1.5"></path><path d="M1416.62 675.57L1395.63 511.64" stroke="hsl(44.10000000000002, 24.4%, 51.2%)" stroke-width="1.5"></path><path d="M1416.62 675.57L1596.62 701.78" stroke="hsl(44.10000000000002, 24.4%, 51.2%)" stroke-width="1.5"></path><path d="M1416.62 675.57L1538.36 504.12" stroke="hsl(44.10000000000002, 24.4%, 51.2%)" stroke-width="1.5"></path><path d="M1574.88 -67.54L1574.88 -67.54" stroke="hsl(44.10000000000002, 24.4%, 51.2%)" stroke-width="1.5"></path><path d="M1574.88 -67.54L1595.51 192.39" stroke="hsl(44.10000000000002, 24.4%, 51.2%)" stroke-width="1.5"></path><path d="M1595.51 192.39L1595.51 192.39" stroke="hsl(44.10000000000002, 24.4%, 51.2%)" stroke-width="1.5"></path><path d="M1595.51 192.39L1586.82 354.92" stroke="hsl(44.10000000000002, 24.4%, 51.2%)" stroke-width="1.5"></path><path d="M1595.51 192.39L1441.12 361.56" stroke="hsl(44.10000000000002, 24.4%, 51.2%)" stroke-width="1.5"></path><path d="M1586.82 354.92L1586.82 354.92" stroke="hsl(44.10000000000002, 24.4%, 51.2%)" stroke-width="1.5"></path><path d="M1586.82 354.92L1538.36 504.12" stroke="hsl(44.10000000000002, 24.4%, 51.2%)" stroke-width="1.5"></path><path d="M1586.82 354.92L1403.73 193.43" stroke="hsl(44.10000000000002, 24.4%, 51.2%)" stroke-width="1.5"></path><path d="M1586.82 354.92L1395.63 511.64" stroke="hsl(44.10000000000002, 24.4%, 51.2%)" stroke-width="1.5"></path><path d="M1586.82 354.92L1311.47 199.59" stroke="hsl(44.10000000000002, 24.4%, 51.2%)" stroke-width="1.5"></path><path d="M1538.36 504.12L1538.36 504.12" stroke="hsl(44.10000000000002, 24.4%, 51.2%)" stroke-width="1.5"></path><path d="M1538.36 504.12L1441.12 361.56" stroke="hsl(44.10000000000002, 24.4%, 51.2%)" stroke-width="1.5"></path><path d="M1538.36 504.12L1596.62 701.78" stroke="hsl(44.10000000000002, 24.4%, 51.2%)" stroke-width="1.5"></path><path d="M1538.36 504.12L1264.26 496.32" stroke="hsl(44.10000000000002, 24.4%, 51.2%)" stroke-width="1.5"></path><path d="M1596.62 701.78L1596.62 701.78" stroke="hsl(44.10000000000002, 24.4%, 51.2%)" stroke-width="1.5"></path><path d="M1596.62 701.78L1395.63 511.64" stroke="hsl(44.10000000000002, 24.4%, 51.2%)" stroke-width="1.5"></path><path d="M1596.62 701.78L1586.82 354.92" stroke="hsl(44.10000000000002, 24.4%, 51.2%)" stroke-width="1.5"></path><path d="M1596.62 701.78L1247.85 657.48" stroke="hsl(44.10000000000002, 24.4%, 51.2%)" stroke-width="1.5"></path><path d="M1596.62 701.78L1441.12 361.56" stroke="hsl(44.10000000000002, 24.4%, 51.2%)" stroke-width="1.5"></path><circle r="25" cx="208.26" cy="687.67" fill="url(#SvgjsRadialGradient1021)"></circle><circle r="25" cx="982.3" cy="346.26" fill="url(#SvgjsRadialGradient1021)"></circle><circle r="25" cx="1311.47" cy="199.59" fill="url(#SvgjsRadialGradient1021)"></circle><circle r="25" cx="1538.63" cy="41.31" fill="url(#SvgjsRadialGradient1021)"></circle><circle r="5" cx="-69.02" cy="526.84" fill="#beb8a6"></circle><circle r="5" cx="-90.34" cy="660.1" fill="#beb8a6"></circle><circle r="5" cx="55.74" cy="491.98" fill="#beb8a6"></circle><circle r="5" cx="41.91" cy="649.31" fill="#beb8a6"></circle><circle r="5" cx="235.81" cy="496.92" fill="#beb8a6"></circle><circle r="5" cx="405.83" cy="555.36" fill="#beb8a6"></circle><circle r="5" cx="490.29" cy="528.09" fill="#beb8a6"></circle><circle r="5" cx="540.44" cy="664" fill="#beb8a6"></circle><circle r="5" cx="692.02" cy="527.39" fill="#beb8a6"></circle><circle r="5" cx="685.69" cy="672.33" fill="#beb8a6"></circle><circle r="5" cx="837.41" cy="350.17" fill="#beb8a6"></circle><circle r="5" cx="819.07" cy="711.51" fill="#beb8a6"></circle><circle r="5" cx="943.67" cy="539.59" fill="#beb8a6"></circle><circle r="5" cx="1002" cy="702.33" fill="#beb8a6"></circle><circle r="5" cx="1139.36" cy="78.04" fill="#beb8a6"></circle><circle r="5" cx="1160.7" cy="226.6" fill="#beb8a6"></circle><circle r="5" cx="1123.47" cy="527.33" fill="#beb8a6"></circle><circle r="5" cx="1093.87" cy="656.69" fill="#beb8a6"></circle><circle r="5" cx="1287.77" cy="-78.81" fill="#beb8a6"></circle><circle r="5" cx="1270.72" cy="100" fill="#beb8a6"></circle><circle r="5" cx="1240.87" cy="392.17" fill="#beb8a6"></circle><circle r="5" cx="1264.26" cy="496.32" fill="#beb8a6"></circle><circle r="5" cx="1247.85" cy="657.48" fill="#beb8a6"></circle><circle r="5" cx="1395.67" cy="-111.37" fill="#beb8a6"></circle><circle r="5" cx="1403.73" cy="193.43" fill="#beb8a6"></circle><circle r="5" cx="1441.12" cy="361.56" fill="#beb8a6"></circle><circle r="5" cx="1395.63" cy="511.64" fill="#beb8a6"></circle><circle r="5" cx="1416.62" cy="675.57" fill="#beb8a6"></circle><circle r="5" cx="1574.88" cy="-67.54" fill="#beb8a6"></circle><circle r="5" cx="1595.51" cy="192.39" fill="#beb8a6"></circle><circle r="5" cx="1586.82" cy="354.92" fill="#beb8a6"></circle><circle r="5" cx="1538.36" cy="504.12" fill="#beb8a6"></circle><circle r="5" cx="1596.62" cy="701.78" fill="#beb8a6"></circle></g><defs><mask id="SvgjsMask1020"><rect width="1440" height="560" fill="#ffffff"></rect></mask><radialGradient id="SvgjsRadialGradient1021"><stop stop-color="#ffffff" offset="0.1"></stop><stop stop-color="rgba(125, 112, 76, 1)" offset="0.2"></stop><stop stop-color="rgba(125, 112, 76, 0)" offset="1"></stop></radialGradient></defs></svg>